<svg width="195" height="195" viewBox="0 0 195 195" fill="none" xmlns="http://www.w3.org/2000/svg">
<path d="M48.75 170.625H24.375C22.2201 170.625 20.1535 169.769 18.6298 168.245C17.106 166.722 16.25 164.655 16.25 162.5V97.5C16.25 95.3451 17.106 93.2785 18.6298 91.7548C20.1535 90.231 22.2201 89.375 24.375 89.375H48.75C50.9049 89.375 52.9715 90.231 54.4952 91.7548C56.019 93.2785 56.875 95.3451 56.875 97.5V162.5C56.875 164.655 56.019 166.722 54.4952 168.245C52.9715 169.769 50.9049 170.625 48.75 170.625ZM105.625 170.625H81.25C79.0951 170.625 77.0285 169.769 75.5048 168.245C73.981 166.722 73.125 164.655 73.125 162.5V24.375C73.125 22.2201 73.981 20.1535 75.5048 18.6298C77.0285 17.106 79.0951 16.25 81.25 16.25H105.625C107.78 16.25 109.847 17.106 111.37 18.6298C112.894 20.1535 113.75 22.2201 113.75 24.375V162.5C113.75 164.655 112.894 166.722 111.37 168.245C109.847 169.769 107.78 170.625 105.625 170.625ZM162.5 170.625H138.125C135.97 170.625 133.903 169.769 132.38 168.245C130.856 166.722 130 164.655 130 162.5V73.125C130 70.9701 130.856 68.9035 132.38 67.3798C133.903 65.856 135.97 65 138.125 65H162.5C164.655 65 166.722 65.856 168.245 67.3798C169.769 68.9035 170.625 70.9701 170.625 73.125V162.5C170.625 164.655 169.769 166.722 168.245 168.245C166.722 169.769 164.655 170.625 162.5 170.625Z" fill="white"/>
</svg>
